Coordinates
version=1
nRows=10
nColumns=34
inDegrees=yes

Units are S.I. units (second, meters, Newtons, ...)
If the header above contains a line with 'inDegrees', this indicates whether rotational values are in degrees (yes) or radians (no).

endheader
time	pelvis_tilt	pelvis_list	pelvis_rotation	pelvis_tx	pelvis_ty	pelvis_tz	hip_flexion_r	hip_adduction_r	hip_rotation_r	knee_angle_r	ankle_angle_r	subtalar_angle_r	mtp_angle_r	hip_flexion_l	hip_adduction_l	hip_rotation_l	knee_angle_l	ankle_angle_l	subtalar_angle_l	mtp_angle_l	lumbar_extension	lumbar_bending	lumbar_rotation	arm_flex_r	arm_add_r	arm_rot_r	elbow_flex_r	pro_sup_r	arm_flex_l	arm_add_l	arm_rot_l	elbow_flex_l	pro_sup_l
      3.93333330	      6.79107336	     -0.85209539	     -6.10579587	      0.22094270	      0.79365699	      0.08896169	     17.45927967	     11.48698873	      3.57450022	     62.01240331	     29.68156721	    -16.48830288	      0.00000000	     29.26770328	     -9.10879044	      2.50683847	      4.04467266	     -1.86548673	     -2.44222465	      0.00000000	    -20.90908900	     -1.10591957	      1.47473209	     41.42651516	      9.54414621	     56.15436156	    129.06891034	    101.96556963	     53.04341676	     17.20455380	     67.25113761	    132.89395589	     75.51891422
      3.95000000	      7.23910218	     -0.93090365	     -5.88054504	      0.21976841	      0.78787080	      0.08813666	     17.16382849	     11.45451325	      3.08805184	     63.18337234	     29.49660249	    -16.14463785	      0.00000000	     29.13166943	     -9.22191991	      1.51052036	      3.49858299	     -2.03238917	     -1.65458500	      0.00000000	    -21.83607121	     -0.78464432	      1.38455319	     41.18963118	      9.64468729	     57.11810829	    129.99751825	    101.88842897	     53.10797331	     17.15644561	     67.10934110	    132.48806441	     75.58704031
      3.96666670	      7.54559086	     -0.92238310	     -5.74140930	      0.21928469	      0.78264873	      0.08795575	     16.83142508	     11.48259877	      2.90941804	     63.86065095	     29.62650808	    -16.26369932	      0.00000000	     29.28497489	     -9.46803953	      1.19416778	      3.73284173	     -2.61283357	     -1.47517872	      0.00000000	    -22.41832024	     -0.59058779	      1.37199668	     40.65832232	      9.83815923	     57.45925792	    130.09011159	    101.87366363	     53.13142645	     17.08633009	     67.14270724	    132.34467653	     75.59325932
      3.98333330	      7.87126306	     -0.75609792	     -5.53126692	      0.21579753	      0.77626308	      0.08602878	     17.31554774	     11.16033388	      2.47024099	     65.28486141	     29.15569334	    -16.79732121	      0.00000000	     29.37587638	     -9.45141808	      0.81730799	      3.84091322	     -4.24894499	     -1.26492971	      0.00000000	    -23.42617674	     -0.74343504	      1.05185736	     40.61298177	     10.05370000	     57.87421040	    130.35864001	    101.84732657	     53.60274747	     17.10404442	     67.15923268	    132.11627054	     75.58982561
      4.00000000	      8.43042128	     -0.60869255	     -5.37927123	      0.21547767	      0.77283194	      0.08694114	     16.94389444	     11.15906520	      2.30160412	     66.60274918	     26.98167835	    -18.10422327	      0.00000000	     28.93297681	     -9.67746707	     -0.56834694	      3.56435537	     -7.60471997	     -2.89006482	      0.00000000	    -24.40056431	     -1.08995063	      1.11979145	     40.64459824	     10.01473110	     57.66482037	    130.36754708	    101.66621708	     53.97048301	     17.10502030	     67.51539737	    131.75227677	     75.50656939
      4.01666670	      8.55836414	     -0.96149568	     -5.22961042	      0.21462845	      0.76941994	      0.08608852	     17.57053282	     11.68368904	      2.09385482	     67.77204860	     27.45172904	    -18.68505318	      0.00000000	     29.23519843	    -10.23160989	     -0.80259056	      3.64226709	     -8.88355120	     -2.65966766	      0.00000000	    -25.26673054	     -0.67842176	      1.27664901	     40.64151102	     10.19114493	     57.57126599	    130.42675409	    101.62835468	     53.94950560	     17.01000976	     67.58846420	    131.56169261	     75.47974382
      4.03333330	      8.49956694	     -1.44717085	     -5.29726966	      0.21333250	      0.76383444	      0.08582590	     18.77887359	     12.49657862	      2.37574824	     68.48158023	     29.74916947	    -19.99499397	      0.00000000	     29.27037152	    -10.89990032	      0.39451315	      3.28642044	    -10.01699097	     -1.61815119	      0.00000000	    -25.92874933	     -0.30692755	      1.49822631	     40.81501841	     10.38589389	     57.55676005	    130.50276554	    101.57640602	     54.20699767	     16.83579536	     67.52605463	    131.34380538	     75.43039104
      4.05000000	      8.29500334	     -1.59727702	     -4.88269079	      0.21196358	      0.76027775	      0.08500467	     20.50592364	     12.96698510	      2.53744854	     68.94200273	     31.09344221	    -20.67943287	      0.00000000	     29.49614590	    -11.16010427	      1.25053208	      3.51395248	    -11.68781217	     -0.80844508	      0.00000000	    -26.61150707	     -0.01500178	      1.55767091	     40.98550707	     10.57036492	     57.60564299	    130.54839878	    101.53348763	     54.42138868	     16.91531746	     67.65416792	    131.33605136	     75.39453276
      4.06666670	      8.41182859	     -2.06463724	     -4.49734561	      0.20980076	      0.75933731	      0.08515341	     22.06006070	     13.70014977	      2.68181717	     69.56233690	     30.82726935	    -21.03809235	      0.00000000	     29.53256950	    -11.73609110	      2.58122801	      3.84467151	    -13.45873183	      0.24376498	      0.00000000	    -27.32294611	      0.49908958	      1.60335002	     41.41731247	     10.55329128	     57.35274753	    130.40376747	    101.46636002	     54.75745015	     16.72636868	     67.60071005	    131.18943621	     75.34063491
      4.08333330	      8.44229590	     -2.81247044	     -4.09814360	      0.21105073	      0.75451269	      0.08359235	     23.00399792	     14.71382309	      2.58713111	     70.66214395	     28.69460103	    -22.85607233	      0.00000000	     29.26380652	    -12.54411183	      4.24536339	      4.15762956	    -14.32945562	      0.57364455	      0.00000000	    -27.91121190	      1.51031058	      1.56053408	     41.78585147	     10.55039568	     57.47014632	    130.06673297	    101.26378340	     54.80321240	     16.56347663	     67.51825258	    131.31208990	     75.20245530
